<?xml version="1.0" standalone="no"?>
<!DOCTYPE svg PUBLIC "-//W3C//DTD SVG 20010904//EN"
 "http://www.w3.org/TR/2001/REC-SVG-20010904/DTD/svg10.dtd">
<svg version="1.0" xmlns="http://www.w3.org/2000/svg"
 width="1280.000000pt" height="1280.000000pt" viewBox="0 0 1280.000000 1280.000000"
 preserveAspectRatio="xMidYMid meet">

<g transform="translate(0.000000,1280.000000) scale(0.100000,-0.100000)"
fill="#000000" stroke="none">
<path d="M6305 9939 c-219 -33 -393 -147 -509 -334 -96 -153 -118 -258 -118
-560 l0 -230 -38 -16 c-46 -20 -90 -81 -97 -138 -8 -55 27 -124 79 -159 l40
-26 -7 -61 c-16 -145 -70 -358 -131 -523 -20 -51 -34 -98 -31 -105 2 -6 25 9
52 34 54 49 53 52 21 -66 -9 -32 -16 -92 -16 -132 0 -40 -3 -73 -8 -73 -4 0
-39 7 -77 15 -102 22 -198 19 -307 -9 -115 -29 -166 -54 -228 -112 -121 -113
-155 -300 -110 -599 10 -71 28 -193 39 -270 34 -231 41 -266 61 -305 22 -43
73 -90 98 -90 9 0 34 -5 55 -11 27 -7 37 -15 37 -31 0 -40 -62 -146 -160 -272
-162 -208 -248 -356 -330 -568 -123 -316 -177 -629 -187 -1099 l-6 -266 -43
-23 c-56 -29 -120 -98 -146 -157 -23 -52 -20 -93 11 -164 10 -24 44 -104 76
-178 l56 -134 -38 -30 c-66 -52 -191 -185 -230 -243 -29 -44 -38 -68 -41 -113
-5 -72 19 -193 68 -339 l37 -114 -29 -18 c-61 -37 -259 -33 -418 10 -41 11
-89 20 -106 20 -45 0 -93 -19 -105 -42 -10 -18 -4 -27 45 -74 143 -135 317
-235 438 -254 80 -12 173 0 292 37 72 23 80 23 88 8 20 -35 71 -85 111 -108
23 -14 57 -41 76 -61 31 -32 35 -42 34 -86 0 -27 -8 -61 -16 -74 -34 -51 -138
-58 -238 -14 -73 31 -86 10 -48 -70 27 -55 101 -105 189 -128 99 -25 258 -16
326 19 108 55 149 122 149 242 -1 95 -21 168 -70 249 -19 32 -35 60 -35 62 0
2 45 4 100 4 157 0 279 16 519 68 21 4 18 -3 -29 -64 -79 -102 -103 -162 -108
-264 -5 -102 14 -185 64 -281 35 -66 107 -148 156 -177 45 -26 36 -35 -43 -47
l-44 -6 -25 52 c-20 43 -34 58 -74 78 -42 22 -65 26 -160 28 -69 2 -126 9
-149 18 -91 36 -184 29 -392 -30 -68 -19 -114 -25 -187 -25 -54 0 -98 -4 -98
-9 0 -31 105 -76 207 -88 46 -5 55 -10 72 -39 25 -41 71 -71 125 -79 67 -11
73 -14 80 -47 4 -19 24 -49 50 -74 39 -37 56 -45 138 -64 120 -29 247 -29 388
-1 183 37 335 51 542 51 294 0 529 -28 948 -112 176 -35 223 -41 330 -40 209
0 349 51 467 168 101 102 150 224 173 437 13 113 4 258 -24 392 -11 57 -11 62
12 95 19 27 22 43 18 73 -4 20 -4 37 -1 37 3 0 32 -13 65 -30 88 -44 176 -76
297 -105 156 -39 310 -115 398 -197 37 -35 121 -78 153 -78 54 0 78 40 53 88
-6 9 -31 60 -57 112 -95 192 -191 306 -310 366 -92 46 -159 104 -218 188 -86
120 -126 222 -172 436 -68 320 -180 586 -333 789 -23 30 -41 58 -41 62 0 4 11
10 25 13 30 8 45 41 45 100 0 53 -13 66 -66 66 -27 0 -61 10 -90 25 -26 14
-54 25 -62 25 -9 0 -12 6 -7 18 13 34 45 166 45 188 0 12 16 73 35 134 39 125
72 277 61 287 -9 9 -33 -24 -56 -77 -62 -142 -145 -303 -158 -308 -5 -1 -12
62 -16 155 -7 169 -16 267 -23 259 -11 -11 -53 -185 -53 -221 -1 -40 -24 -152
-34 -162 -6 -6 -8 0 -25 62 -35 134 -79 286 -84 291 -3 3 -8 -16 -12 -43 -11
-88 -24 -94 -25 -13 -1 129 -29 433 -45 490 -8 30 -15 56 -15 58 0 1 6 2 14 2
9 0 16 17 20 45 11 67 10 542 0 1135 l-6 355 27 -25 c41 -38 70 -103 110 -246
20 -71 54 -184 76 -252 45 -138 54 -148 129 -131 23 5 44 8 45 7 2 -2 33 -117
70 -257 98 -372 185 -585 259 -630 77 -48 146 -40 209 24 86 85 126 185 271
670 36 121 110 357 165 525 l98 305 160 80 c90 45 186 101 219 128 60 49 131
128 160 177 9 15 36 37 60 49 83 40 84 42 84 398 0 325 -13 669 -31 787 -18
123 -62 192 -174 272 l-29 21 22 27 c17 22 19 32 11 47 -5 10 -15 19 -22 19
-8 0 -7 3 2 9 39 25 42 174 6 210 -27 27 -167 42 -375 42 -238 1 -412 -30
-450 -78 -24 -31 -28 -104 -6 -123 11 -8 12 -18 6 -35 -7 -20 -5 -27 11 -39
14 -10 19 -21 15 -34 -4 -11 0 -24 9 -32 23 -19 18 -38 -25 -87 -45 -51 -84
-128 -99 -194 -20 -84 -12 -352 24 -844 9 -116 21 -220 30 -246 20 -59 67
-114 117 -140 37 -19 40 -23 34 -52 -17 -90 -18 -165 -2 -220 16 -54 16 -58
-2 -77 -10 -11 -67 -147 -126 -302 -91 -236 -134 -354 -242 -658 -5 -13 -6
-13 -14 0 -24 43 -153 527 -146 546 7 19 -139 602 -174 693 -78 201 -215 336
-389 383 -75 19 -82 24 -76 42 30 98 33 183 9 271 -32 118 -33 115 22 67 27
-24 50 -39 52 -33 2 6 -10 48 -27 93 -58 163 -105 345 -134 531 -12 76 -12 89
0 94 7 3 25 25 39 49 27 46 34 108 16 155 -10 25 -65 79 -82 79 -4 0 -10 98
-13 218 -9 418 -76 659 -217 786 -52 47 -159 97 -263 125 -89 23 -273 34 -362
20z m346 -39 c90 -23 171 -56 182 -75 4 -8 14 -12 22 -9 20 8 105 -73 98 -93
-5 -12 -2 -15 9 -11 18 7 81 -102 73 -124 -3 -8 1 -21 10 -28 21 -18 20 -41
-2 -33 -16 6 -16 5 -4 -10 7 -9 18 -14 23 -11 6 4 9 -6 7 -22 -1 -16 3 -40 9
-54 16 -34 32 -144 22 -148 -4 -2 -1 -16 7 -32 9 -20 16 -77 20 -172 6 -140 5
-145 -25 -235 -55 -162 -139 -312 -236 -419 l-46 -52 -77 39 c-97 49 -176 60
-272 35 -53 -14 -71 -14 -100 -4 -20 6 -68 12 -106 12 -60 -1 -83 -7 -163 -42
-50 -23 -102 -42 -115 -42 -29 0 -150 128 -200 212 -61 103 -78 172 -86 350
-15 327 12 495 105 648 67 111 188 231 238 234 11 1 20 7 19 13 -3 15 111 65
131 57 9 -3 16 -1 16 4 0 10 73 28 140 35 74 6 228 -5 301 -23z m2289 -944
c91 -8 172 -17 181 -21 25 -10 42 -126 20 -139 -5 -3 -7 -15 -4 -25 4 -16 -4
-21 -48 -30 -88 -19 -274 -31 -494 -31 -244 0 -259 2 -250 38 4 16 0 31 -10
42 -24 27 -16 88 15 112 27 20 138 44 266 57 117 12 143 12 324 -3z m-3263
-233 c-4 -38 -7 -95 -7 -128 0 -80 -10 -94 -45 -71 -28 18 -64 86 -65 120 0
52 73 146 114 146 5 0 6 -30 3 -67z m1523 12 c33 -35 39 -118 11 -162 -12 -18
-25 -33 -29 -33 -9 0 -22 102 -22 178 0 48 7 52 40 17z m1937 -39 c3 -3 -2
-21 -12 -40 -23 -42 -17 -50 62 -102 65 -44 108 -124 122 -229 17 -125 33
-574 29 -843 l-3 -264 -28 -24 c-15 -13 -32 -24 -37 -24 -15 0 -16 53 -2 98
12 37 12 45 -2 67 -12 18 -15 36 -10 60 11 60 -44 92 -68 40 -6 -14 -18 -25
-27 -25 -9 0 -39 -31 -66 -69 -28 -38 -80 -94 -117 -126 -37 -31 -65 -61 -62
-66 8 -13 88 47 136 101 130 146 162 180 169 180 5 0 9 -10 9 -23 0 -33 -79
-139 -174 -234 -74 -73 -88 -82 -132 -89 -94 -15 -275 -10 -349 9 -107 27
-104 23 -61 118 21 45 40 98 43 118 8 67 13 81 28 81 30 0 32 -88 5 -217 -12
-57 -12 -64 5 -83 56 -62 221 24 390 203 58 61 105 114 105 119 0 25 -35 -1
-94 -72 -92 -109 -207 -201 -286 -228 -46 -16 -97 -15 -103 2 -3 8 3 51 14 96
31 130 26 157 -33 194 -33 21 -37 16 -54 -75 -7 -37 -29 -102 -49 -143 l-36
-76 -32 16 c-76 39 -109 92 -126 204 -19 131 -44 567 -45 795 -1 252 1 259 94
385 50 68 60 96 39 117 -7 7 -9 18 -6 26 4 12 55 14 289 17 155 1 306 6 333
10 53 9 132 7 142 -4z m-3468 -1155 c4 -28 5 -51 2 -51 -3 0 -16 8 -29 18 -23
18 -23 19 -6 55 10 20 19 35 21 33 2 -2 7 -27 12 -55z m1561 -57 c0 -19 -4
-21 -32 -15 -31 7 -33 10 -30 47 1 21 5 50 8 64 6 23 8 21 30 -25 13 -27 24
-60 24 -71z m-1554 -80 c-4 -9 -9 -15 -11 -12 -3 3 -3 13 1 22 4 9 9 15 11 12
3 -3 3 -13 -1 -22z m0 -96 c-5 -52 -12 -68 -38 -95 -17 -18 -33 -31 -35 -30
-7 7 40 172 51 179 24 16 29 6 22 -54z m3574 -14 c0 -23 -69 -123 -111 -161
-13 -12 -45 -24 -71 -28 l-47 -7 47 48 c50 52 76 82 131 152 35 45 51 43 51
-4z m-3538 -145 c-25 -89 -31 -99 -81 -148 l-54 -53 6 93 c6 87 8 94 39 126
27 27 34 31 38 17 5 -13 13 -8 40 23 19 22 36 39 37 39 1 -1 -11 -44 -25 -97z
m3519 19 c-5 -14 -19 -28 -30 -31 -24 -6 -20 4 12 40 25 28 31 24 18 -9z
m-4174 -53 c10 -43 9 -45 -13 -45 -47 0 -74 18 -74 48 0 36 6 42 45 42 29 0
32 -3 42 -45z m185 29 c16 -10 8 -63 -11 -74 -24 -12 -143 -2 -153 14 -4 6 -8
26 -8 45 l0 34 82 -7 c44 -4 85 -9 90 -12z m3929 -72 c-16 -21 -62 -68 -100
-105 -60 -56 -95 -78 -245 -151 -95 -47 -181 -86 -190 -86 -9 0 -16 -4 -16
-10 0 -5 4 -10 9 -10 24 0 14 -46 -60 -266 -77 -233 -175 -547 -259 -829 -106
-361 -235 -501 -372 -403 -58 41 -142 246 -221 538 -55 201 -117 444 -117 454
0 12 131 93 200 123 l75 33 31 -123 c17 -67 54 -202 83 -300 l52 -179 -26 -79
c-15 -43 -25 -88 -23 -99 2 -11 72 173 156 409 166 468 276 753 298 775 7 8
19 16 25 18 7 2 4 24 -10 65 -12 35 -21 80 -21 102 0 59 20 141 34 141 7 0 48
-9 92 -20 112 -29 332 -26 489 6 l30 6 -34 -36 c-47 -49 -19 -46 40 4 43 36
80 58 102 59 5 1 -5 -16 -22 -37z m-3505 -104 c-17 -84 -36 -203 -36 -227 -1
-44 -18 -2 -31 76 -14 80 -9 110 27 152 34 41 48 40 40 -1z m-428 -71 c6 -5
12 -22 12 -38 0 -22 -6 -30 -26 -35 -35 -9 -137 4 -146 19 -9 14 -11 61 -2 70
9 9 147 -4 162 -16z m-180 -27 c2 -37 1 -40 -23 -40 -43 0 -65 17 -65 50 0 29
2 30 43 30 42 0 42 0 45 -40z m509 -847 c-4 -71 -6 -180 -3 -243 22 -554 24
-582 37 -591 8 -5 20 -9 27 -9 8 0 11 -7 8 -17 -29 -103 -48 -237 -52 -378
-10 -335 -70 -586 -209 -870 -115 -236 -222 -374 -370 -480 -37 -26 -68 -45
-70 -43 -2 2 7 59 20 128 13 69 27 166 31 216 l7 91 -38 42 c-39 42 -119 91
-151 91 -15 0 -16 21 -12 248 6 279 28 460 83 677 76 302 183 519 403 814 78
105 143 223 193 351 36 92 42 100 79 100 l25 0 -8 -127z m-389 -58 c20 -9 54
-33 75 -53 38 -36 85 -112 70 -112 -5 0 -19 20 -32 45 -36 67 -115 117 -206
128 -23 3 -19 4 13 6 23 0 59 -6 80 -14z m-225 -397 c24 -13 56 -44 75 -72 45
-68 40 -81 -6 -15 -50 72 -107 104 -185 103 -37 -1 -53 2 -45 8 22 15 115 1
161 -24z m686 -47 c37 -36 137 -86 216 -106 33 -9 110 -19 172 -22 l112 -6 70
-122 c39 -68 71 -126 71 -131 0 -20 -444 20 -590 54 l-75 17 -6 60 c-8 71 -11
285 -4 285 2 0 18 -13 34 -29z m1569 -157 c-2 -79 -7 -146 -9 -149 -6 -6 -267
-51 -374 -65 -38 -5 -125 -12 -192 -16 l-123 -6 70 123 c38 67 71 126 72 130
2 5 72 15 156 24 203 21 322 59 371 119 14 16 15 16 24 0 5 -9 8 -79 5 -160z
m-536 94 c-11 -18 -68 -116 -127 -218 -60 -102 -117 -199 -129 -216 l-21 -32
-132 232 c-73 127 -135 239 -139 249 -6 16 12 17 281 17 l287 0 -20 -32z m521
-355 c18 -90 25 -170 37 -408 4 -93 16 -202 25 -242 9 -39 15 -93 13 -120 l-3
-48 -35 80 c-43 101 -130 255 -143 255 -14 0 -1 -104 21 -170 11 -30 22 -77
26 -105 4 -27 9 -63 12 -79 l6 -29 -44 32 c-24 17 -52 44 -61 60 -22 37 -93
101 -113 101 -9 0 -12 -5 -8 -12 4 -7 22 -35 40 -63 17 -27 35 -61 39 -75 7
-25 54 -113 84 -159 15 -24 15 -24 -9 -11 -41 22 -193 80 -198 75 -2 -2 35
-41 83 -87 85 -80 87 -83 66 -96 -26 -17 -29 -62 -4 -62 9 0 25 8 36 18 19 17
20 16 13 -11 -20 -84 -36 -202 -36 -276 0 -76 -3 -89 -30 -130 -42 -67 -60
-147 -61 -281 0 -63 -4 -138 -8 -166 -4 -29 -5 -74 -2 -100 6 -46 8 -49 38
-52 35 -3 73 -52 99 -124 26 -75 19 -117 -40 -235 -146 -290 -314 -446 -558
-517 -94 -27 -347 -81 -353 -75 -2 2 -9 42 -15 89 -13 94 -40 167 -74 199
l-23 22 -74 -36 c-85 -40 -95 -42 -109 -16 -17 33 -12 40 50 81 l61 39 -62 22
c-62 23 -62 23 -38 38 127 84 247 205 297 298 45 85 62 173 61 323 -1 176 -14
191 -17 18 -3 -237 -41 -343 -172 -475 -81 -81 -156 -136 -296 -214 -60 -33
-126 -73 -146 -90 -27 -21 -65 -36 -140 -54 -116 -28 -312 -55 -394 -55 -49 0
-54 2 -54 23 -1 48 -31 163 -60 225 -36 77 -103 145 -162 164 l-42 14 60 36
c68 41 425 221 429 216 2 -2 15 -70 29 -153 33 -198 55 -269 83 -273 18 -3 24
4 32 35 19 71 32 228 30 365 l-2 137 76 71 c96 89 159 173 208 274 56 116 47
128 -12 16 -27 -52 -68 -119 -91 -148 -41 -55 -166 -182 -179 -182 -3 0 -9 22
-13 49 -8 60 -37 104 -101 153 -56 43 -227 130 -292 149 l-42 12 72 49 c148
102 257 237 371 463 150 296 211 535 226 880 5 134 14 223 30 300 13 61 23
111 24 112 1 1 28 -5 61 -13 81 -19 290 -42 458 -50 l138 -7 34 -68 c19 -37
39 -70 44 -73 5 -4 30 27 56 68 l46 74 92 6 c163 12 379 37 477 56 52 9 100
18 106 19 6 0 18 -34 27 -76z m-2393 8 c48 -25 90 -59 90 -73 0 -5 -21 7 -46
26 -64 49 -132 70 -207 63 -41 -4 -56 -2 -46 4 25 18 160 4 209 -20z m-47
-451 c66 -33 59 -44 -9 -13 -70 32 -153 39 -217 20 -39 -13 -46 -13 -37 -2 16
20 44 24 135 21 60 -2 92 -9 128 -26z m2947 -96 c-11 -49 -31 -123 -45 -164
-13 -41 -31 -115 -40 -164 -9 -48 -23 -106 -32 -128 -15 -37 -18 -39 -47 -34
-132 27 -297 14 -375 -30 -63 -35 -83 -31 -141 27 -28 28 -49 53 -47 55 7 7
107 -35 139 -58 42 -29 45 -16 9 39 -17 26 -55 95 -83 153 l-53 105 87 -86
c47 -48 93 -100 102 -118 9 -17 21 -31 26 -31 13 0 13 -4 -10 62 -11 31 -24
89 -30 130 -6 40 -20 100 -31 132 -40 125 -12 106 53 -34 82 -178 113 -240
122 -240 5 0 6 19 2 43 -16 108 -26 279 -19 342 7 70 7 70 16 30 4 -22 22 -85
37 -140 26 -87 34 -127 45 -220 4 -34 5 -35 15 -35 6 0 10 24 10 53 1 28 5 72
10 97 5 25 16 92 24 150 23 164 32 175 40 45 4 -60 9 -148 12 -195 3 -64 1
-95 -11 -123 -17 -42 -19 -57 -6 -57 5 0 23 33 40 73 16 39 56 124 89 187 32
63 69 141 81 173 13 32 26 56 28 53 2 -2 -5 -44 -17 -92z m-2982 -369 c23 -9
42 -20 42 -24 0 -4 -46 -1 -102 7 -102 13 -157 12 -190 -2 -10 -5 -18 -4 -18
1 0 6 19 16 43 23 23 7 47 14 52 16 23 8 133 -5 173 -21z m2830 -141 c71 -6
122 -21 122 -35 0 -12 -74 -11 -86 1 -5 5 -51 13 -101 16 -76 6 -96 4 -117
-10 -28 -18 -180 -24 -191 -7 -7 12 53 32 125 42 53 7 98 6 248 -7z m15 -40
c11 -4 13 -17 9 -52 -2 -26 -8 -51 -13 -56 -5 -5 -6 16 -3 48 l5 57 -83 -3
-83 -3 2 -58 c2 -66 -13 -68 -23 -2 -10 72 -6 75 90 75 46 0 91 -3 99 -6z
m205 -11 c-15 -2 -42 -2 -60 0 -18 2 -6 4 27 4 33 0 48 -2 33 -4z m-620 -12
c-49 -3 -93 -11 -100 -18 -20 -21 -32 -14 -13 7 16 17 30 20 109 18 l91 -1
-87 -6z m500 2 c-10 -2 -26 -2 -35 0 -10 3 -2 5 17 5 19 0 27 -2 18 -5z m-320
-10 c-16 -2 -40 -2 -55 0 -16 2 -3 4 27 4 30 0 43 -2 28 -4z m445 0 c-7 -2
-19 -2 -25 0 -7 3 -2 5 12 5 14 0 19 -2 13 -5z m-463 -21 c41 -6 45 -10 48
-37 2 -16 8 -36 14 -42 8 -10 -10 -13 -84 -13 -109 0 -158 13 -158 41 0 10 -4
19 -10 19 -5 0 -10 -11 -10 -23 0 -40 39 -50 225 -58 94 -4 194 -12 224 -18
51 -10 90 -6 146 14 15 5 12 0 -9 -20 -30 -27 -31 -27 -133 -21 -68 5 -128 3
-179 -5 -64 -11 -86 -11 -147 2 -40 9 -80 19 -89 23 -11 5 -18 4 -18 -3 0 -14
64 -41 118 -48 35 -5 42 -9 36 -22 -4 -9 -11 -104 -15 -211 -4 -107 -8 -199
-8 -204 -1 -5 -10 3 -22 18 -11 14 -35 34 -52 42 -41 21 -95 71 -113 106 -21
40 -18 211 6 341 11 60 22 113 25 118 7 10 137 11 205 1z m376 -14 c19 -24 44
-64 44 -73 0 -3 -9 -5 -19 -5 -11 0 -22 -4 -25 -9 -8 -13 -68 -20 -115 -14
l-40 6 29 27 c21 20 30 38 30 59 0 29 2 31 38 31 28 0 44 -6 58 -22z m101 -14
c-3 -3 -12 -4 -19 -1 -8 3 -5 6 6 6 11 1 17 -2 13 -5z m13 -24 c0 -5 -2 -10
-4 -10 -3 0 -8 5 -11 10 -3 6 -1 10 4 10 6 0 11 -4 11 -10z m13 -196 c134
-194 227 -424 292 -717 54 -241 98 -354 179 -460 21 -28 36 -58 36 -75 -1 -91
-70 -282 -119 -326 -20 -18 -22 -18 -83 4 -92 33 -217 100 -229 122 -8 16 -5
33 15 78 l26 57 -26 46 c-23 42 -26 58 -28 179 -4 151 -27 280 -80 442 -70
213 -137 327 -275 469 -116 119 -148 134 -41 18 115 -123 171 -200 219 -297
48 -96 104 -260 131 -382 19 -83 39 -332 27 -332 -3 0 -33 53 -68 118 -34 64
-89 164 -122 221 -58 102 -59 105 -53 160 6 52 14 69 72 148 16 22 15 25 -9
56 -14 19 -69 65 -122 102 -70 50 -110 87 -150 141 -30 40 -68 86 -85 102 -33
34 -39 79 -17 141 12 34 15 35 87 48 47 8 111 10 172 6 96 -6 158 5 158 29 0
25 31 -7 93 -98z m-2951 48 c113 -57 106 -37 73 -222 -28 -160 -28 -160 -62
-181 -18 -11 -38 -30 -44 -41 -18 -33 -13 -88 10 -119 25 -34 26 -48 4 -94
-12 -25 -22 -34 -32 -30 -85 33 -173 26 -234 -17 -16 -12 -32 -17 -37 -12 -15
15 -105 176 -137 246 l-31 67 75 80 c41 45 71 81 65 81 -19 0 -93 -61 -121
-100 l-29 -40 -41 100 c-47 114 -48 112 27 182 97 91 230 140 369 135 68 -3
91 -9 145 -35z m2310 -383 c35 -18 107 -101 108 -123 0 -6 -13 2 -28 17 -15
15 -31 27 -34 27 -3 0 -9 -22 -13 -50 -4 -27 -11 -50 -17 -50 -11 0 -92 169
-107 224 l-10 39 31 -32 c18 -18 49 -41 70 -52z m173 -14 c14 -32 24 -60 22
-61 -2 -2 -14 7 -27 21 -31 33 -40 32 -41 -7 l-1 -33 -9 30 c-5 17 -6 56 -3
88 8 67 14 63 59 -38z m-2353 -49 c86 -32 181 -81 252 -128 91 -62 99 -88 104
-333 4 -184 -7 -360 -26 -389 -9 -16 -38 109 -72 309 -35 209 -48 250 -96 299
-45 46 -69 58 -179 90 -49 14 -97 34 -107 44 -29 29 -33 73 -8 105 27 33 51
34 132 3z m2386 -48 c5 -7 22 -42 37 -78 15 -36 75 -166 135 -290 59 -124 128
-279 154 -345 80 -207 120 -290 139 -290 20 0 57 -72 57 -109 0 -17 -28 -69
-56 -104 -7 -10 -58 36 -79 73 -34 57 -68 159 -55 163 6 2 10 36 10 78 0 71
-2 78 -60 187 -33 62 -89 180 -125 262 -36 83 -91 196 -121 253 -29 57 -54
114 -54 127 0 13 -4 35 -9 48 -13 35 5 51 27 25z m-2954 -83 c20 -36 36 -67
36 -69 0 -3 -29 -25 -63 -49 -80 -57 -123 -106 -136 -154 -16 -57 -13 -181 8
-359 32 -259 34 -284 23 -284 -13 0 -95 178 -131 285 -38 115 -71 262 -71 320
0 56 22 100 94 187 46 55 187 188 200 188 2 0 20 -29 40 -65z m2631 42 c17
-13 14 -37 -5 -37 -14 0 -41 31 -35 41 8 12 18 11 40 -4z m230 -54 c33 -39 59
-103 171 -411 123 -336 136 -368 176 -410 33 -36 49 -66 68 -125 l24 -78 -37
-75 -38 -76 -35 27 c-20 15 -55 32 -77 37 -53 12 -67 24 -67 58 0 15 -5 41
-11 59 -6 18 -9 34 -7 36 2 3 27 2 56 -2 l51 -6 3 -51 c3 -50 4 -51 36 -54 44
-4 50 17 24 81 -12 29 -37 113 -56 187 -67 263 -119 384 -271 640 -78 131 -85
148 -80 182 8 45 19 42 70 -19z m-2300 -39 c138 -38 193 -93 210 -206 l7 -47
-173 -85 c-222 -109 -307 -159 -405 -239 l-79 -65 -17 46 c-24 63 -42 80 -64
61 -16 -13 -17 -11 -11 17 5 29 3 33 -24 44 -16 7 -31 16 -34 20 -4 6 129 317
140 328 1 2 18 -6 37 -18 114 -67 252 -10 303 124 13 34 22 45 34 42 9 -3 43
-12 76 -22z m-482 -77 l19 -34 -84 -184 c-46 -101 -97 -204 -113 -229 l-28
-45 -9 30 c-4 17 -11 85 -15 152 -9 176 5 205 143 307 32 24 61 42 64 41 3 -2
13 -19 23 -38z m2510 -94 c-7 -2 -21 -2 -30 0 -10 3 -4 5 12 5 17 0 24 -2 18
-5z m115 -22 c92 -31 152 -70 228 -146 83 -84 109 -140 175 -383 41 -153 44
-172 31 -172 -5 0 -21 54 -36 121 -85 369 -169 478 -451 580 -69 25 -21 25 53
0z m20 -55 c27 -14 35 -29 62 -114 26 -78 99 -366 127 -494 4 -22 14 -31 44
-39 41 -13 50 -30 65 -114 3 -22 13 -47 20 -56 12 -14 11 -17 -10 -27 -23 -10
-25 -8 -36 36 -6 26 -26 73 -43 106 l-31 58 -28 -33 -27 -34 -1 27 c0 15 4 38
9 51 8 19 6 28 -7 40 -56 49 -151 68 -220 44 -40 -14 -44 -14 -39 1 3 10 16
56 30 103 31 105 52 269 43 332 -4 26 -19 71 -34 101 l-28 54 37 -13 c20 -7
51 -20 67 -29z m-78 -343 c-14 -86 -53 -199 -101 -296 -88 -173 -108 -262 -89
-380 21 -130 75 -237 188 -372 l63 -75 -58 0 c-32 0 -130 12 -218 26 -132 21
-207 27 -430 31 -258 5 -351 0 -645 -33 -43 -5 -46 -3 -72 33 -15 21 -48 64
-74 96 -40 49 -48 65 -52 110 -3 41 1 63 16 94 51 99 147 136 484 188 273 42
502 105 598 164 123 75 240 206 336 376 32 57 60 103 61 101 1 -1 -2 -29 -7
-63z m550 -410 c0 -7 -9 -13 -20 -13 -17 0 -20 7 -20 48 l1 47 19 -35 c11 -19
19 -41 20 -47z m223 -108 c21 -6 25 -15 36 -83 39 -240 17 -462 -60 -620 -40
-83 -132 -180 -208 -221 -101 -53 -196 -74 -351 -74 -121 0 -154 4 -328 41
-225 49 -476 86 -687 103 -204 16 -524 6 -675 -21 -250 -45 -295 -51 -365 -45
-173 15 -269 56 -304 128 -12 24 -21 50 -21 58 0 38 25 94 56 129 54 59 118
81 270 93 122 10 134 9 164 -9 36 -21 65 -56 75 -91 5 -19 1 -23 -32 -30 -21
-4 -99 -7 -173 -7 -149 -1 -189 10 -201 54 -6 23 -7 23 -14 6 -38 -90 248
-122 520 -57 254 61 523 85 873 78 222 -4 297 -9 447 -31 141 -22 204 -27 290
-23 120 5 170 19 241 67 l44 29 -19 -37 c-11 -20 -38 -61 -60 -91 -23 -30 -38
-57 -35 -60 12 -12 102 99 137 170 49 101 79 262 81 431 0 71 4 128 7 128 3 0
26 -16 50 -35 24 -19 49 -35 55 -35 6 0 25 34 44 75 l33 76 43 -45 c24 -25 54
-48 67 -51z m-317 -32 c9 -75 -12 -298 -36 -376 -19 -62 -45 -96 -101 -131
-25 -15 -26 -15 -67 27 -60 61 -86 126 -86 212 0 84 23 135 91 201 39 39 167
124 185 124 4 0 10 -25 14 -57z m-2530 -432 c-3 -4 -27 -11 -53 -14 -26 -3
-83 -17 -127 -31 -43 -14 -84 -26 -90 -26 -25 1 43 41 99 59 60 20 181 28 171
12z m33 -54 c-30 -13 -72 -36 -92 -51 -38 -29 -77 -97 -77 -134 0 -19 -4 -22
-27 -16 -105 23 -153 57 -153 109 0 47 22 70 62 67 19 -2 70 6 113 17 90 23
120 27 185 29 l45 2 -56 -23z m-336 -9 c-11 -13 -27 -35 -34 -49 l-14 -26 -70
12 c-38 7 -88 21 -110 31 l-40 18 100 7 c55 4 114 12 130 18 51 16 61 13 38
-11z"/>
<path d="M6410 9890 c0 -5 7 -10 15 -10 8 0 15 5 15 10 0 6 -7 10 -15 10 -8 0
-15 -4 -15 -10z"/>
<path d="M6290 9880 c0 -5 7 -10 16 -10 8 0 12 5 9 10 -3 6 -10 10 -16 10 -5
0 -9 -4 -9 -10z"/>
<path d="M6600 9880 c0 -5 7 -10 16 -10 8 0 12 5 9 10 -3 6 -10 10 -16 10 -5
0 -9 -4 -9 -10z"/>
<path d="M6365 9870 c3 -5 11 -10 16 -10 6 0 7 5 4 10 -3 6 -11 10 -16 10 -6
0 -7 -4 -4 -10z"/>
<path d="M6260 9860 c0 -5 5 -10 11 -10 5 0 7 5 4 10 -3 6 -8 10 -11 10 -2 0
-4 -4 -4 -10z"/>
<path d="M6480 9860 c0 -5 5 -10 10 -10 6 0 10 5 10 10 0 6 -4 10 -10 10 -5 0
-10 -4 -10 -10z"/>
<path d="M6545 9860 c3 -5 10 -10 16 -10 5 0 9 5 9 10 0 6 -7 10 -16 10 -8 0
-12 -4 -9 -10z"/>
<path d="M6665 9850 c3 -5 10 -10 16 -10 5 0 9 5 9 10 0 6 -7 10 -16 10 -8 0
-12 -4 -9 -10z"/>
<path d="M6105 9830 c-3 -5 1 -10 9 -10 9 0 16 5 16 10 0 6 -4 10 -9 10 -6 0
-13 -4 -16 -10z"/>
<path d="M6452 9828 c5 -15 28 -23 28 -10 0 5 -7 13 -16 16 -10 4 -14 1 -12
-6z"/>
<path d="M6520 9826 c0 -9 5 -16 10 -16 6 0 10 4 10 9 0 6 -4 13 -10 16 -5 3
-10 -1 -10 -9z"/>
<path d="M6760 9830 c0 -5 7 -10 16 -10 8 0 12 5 9 10 -3 6 -10 10 -16 10 -5
0 -9 -4 -9 -10z"/>
<path d="M6177 9823 c-4 -3 -7 -11 -7 -17 0 -6 5 -5 12 2 6 6 9 14 7 17 -3 3
-9 2 -12 -2z"/>
<path d="M6390 9820 c0 -5 5 -10 10 -10 6 0 10 5 10 10 0 6 -4 10 -10 10 -5 0
-10 -4 -10 -10z"/>
<path d="M6230 9810 c0 -5 7 -10 16 -10 8 0 12 5 9 10 -3 6 -10 10 -16 10 -5
0 -9 -4 -9 -10z"/>
<path d="M6305 9810 c3 -5 10 -10 16 -10 5 0 9 5 9 10 0 6 -7 10 -16 10 -8 0
-12 -4 -9 -10z"/>
<path d="M6580 9810 c0 -5 5 -10 11 -10 5 0 7 5 4 10 -3 6 -8 10 -11 10 -2 0
-4 -4 -4 -10z"/>
<path d="M6645 9810 c3 -5 11 -10 16 -10 6 0 7 5 4 10 -3 6 -11 10 -16 10 -6
0 -7 -4 -4 -10z"/>
<path d="M6705 9810 c3 -5 10 -10 16 -10 5 0 9 5 9 10 0 6 -7 10 -16 10 -8 0
-12 -4 -9 -10z"/>
<path d="M6065 9780 c-3 -5 -1 -10 4 -10 6 0 11 5 11 10 0 6 -2 10 -4 10 -3 0
-8 -4 -11 -10z"/>
<path d="M6120 9780 c0 -5 5 -10 10 -10 6 0 10 5 10 10 0 6 -4 10 -10 10 -5 0
-10 -4 -10 -10z"/>
<path d="M6755 9780 c3 -5 10 -10 16 -10 5 0 9 5 9 10 0 6 -7 10 -16 10 -8 0
-12 -4 -9 -10z"/>
<path d="M6830 9770 c0 -5 5 -10 10 -10 6 0 10 5 10 10 0 6 -4 10 -10 10 -5 0
-10 -4 -10 -10z"/>
<path d="M6890 9760 c0 -5 7 -10 16 -10 8 0 12 5 9 10 -3 6 -10 10 -16 10 -5
0 -9 -4 -9 -10z"/>
<path d="M5995 9751 c-6 -11 9 -23 19 -14 9 9 7 23 -3 23 -6 0 -12 -4 -16 -9z"/>
<path d="M6070 9730 c0 -5 4 -10 9 -10 6 0 13 5 16 10 3 6 -1 10 -9 10 -9 0
-16 -4 -16 -10z"/>
<path d="M6800 9730 c20 -13 33 -13 25 0 -3 6 -14 10 -23 10 -15 0 -15 -2 -2
-10z"/>
<path d="M5940 9704 c0 -8 5 -12 10 -9 6 3 10 10 10 16 0 5 -4 9 -10 9 -5 0
-10 -7 -10 -16z"/>
<path d="M5987 9693 c-4 -3 -7 -11 -7 -17 0 -6 5 -5 12 2 6 6 9 14 7 17 -3 3
-9 2 -12 -2z"/>
<path d="M6895 9680 c3 -5 11 -10 16 -10 6 0 7 5 4 10 -3 6 -11 10 -16 10 -6
0 -7 -4 -4 -10z"/>
<path d="M6030 9670 c0 -5 5 -10 10 -10 6 0 10 5 10 10 0 6 -4 10 -10 10 -5 0
-10 -4 -10 -10z"/>
<path d="M6845 9670 c3 -5 8 -10 11 -10 2 0 4 5 4 10 0 6 -5 10 -11 10 -5 0
-7 -4 -4 -10z"/>
<path d="M5940 9644 c0 -8 5 -12 10 -9 6 3 10 10 10 16 0 5 -4 9 -10 9 -5 0
-10 -7 -10 -16z"/>
<path d="M6930 9650 c0 -5 7 -10 16 -10 8 0 12 5 9 10 -3 6 -10 10 -16 10 -5
0 -9 -4 -9 -10z"/>
<path d="M5890 9624 c0 -8 5 -12 10 -9 6 3 10 10 10 16 0 5 -4 9 -10 9 -5 0
-10 -7 -10 -16z"/>
<path d="M5997 9633 c-4 -3 -7 -11 -7 -17 0 -6 5 -5 12 2 6 6 9 14 7 17 -3 3
-9 2 -12 -2z"/>
<path d="M6880 9631 c0 -5 7 -11 14 -14 10 -4 13 -1 9 9 -6 15 -23 19 -23 5z"/>
<path d="M6990 9631 c0 -5 5 -13 10 -16 6 -3 10 -2 10 4 0 5 -4 13 -10 16 -5
3 -10 2 -10 -4z"/>
<path d="M5915 9589 c-11 -17 1 -21 15 -4 8 9 8 15 2 15 -6 0 -14 -5 -17 -11z"/>
<path d="M6960 9591 c0 -5 5 -13 10 -16 6 -3 10 -2 10 4 0 5 -4 13 -10 16 -5
3 -10 2 -10 -4z"/>
<path d="M5840 9575 c0 -8 5 -15 10 -15 6 0 10 7 10 15 0 8 -4 15 -10 15 -5 0
-10 -7 -10 -15z"/>
<path d="M5900 9524 c0 -8 5 -12 10 -9 6 3 10 10 10 16 0 5 -4 9 -10 9 -5 0
-10 -7 -10 -16z"/>
<path d="M6980 9530 c0 -5 5 -10 11 -10 5 0 7 5 4 10 -3 6 -8 10 -11 10 -2 0
-4 -4 -4 -10z"/>
<path d="M5837 9523 c-12 -12 -7 -22 8 -17 8 4 15 10 15 15 0 11 -14 12 -23 2z"/>
<path d="M5780 9490 c0 -5 5 -10 10 -10 6 0 10 5 10 10 0 6 -4 10 -10 10 -5 0
-10 -4 -10 -10z"/>
<path d="M5860 9474 c0 -8 5 -12 10 -9 6 3 10 10 10 16 0 5 -4 9 -10 9 -5 0
-10 -7 -10 -16z"/>
<path d="M7012 9481 c2 -7 7 -12 11 -12 12 1 9 15 -3 20 -7 2 -11 -2 -8 -8z"/>
<path d="M5817 9463 c-4 -3 -7 -11 -7 -17 0 -6 5 -5 12 2 6 6 9 14 7 17 -3 3
-9 2 -12 -2z"/>
<path d="M5835 9419 c-4 -6 -5 -13 -2 -16 7 -7 27 6 27 18 0 12 -17 12 -25 -2z"/>
<path d="M7040 9415 c7 -9 15 -13 17 -11 7 7 -7 26 -19 26 -6 0 -6 -6 2 -15z"/>
<path d="M5766 9411 c-4 -7 -5 -15 -2 -18 9 -9 19 4 14 18 -4 11 -6 11 -12 0z"/>
<path d="M5827 9363 c-4 -3 -7 -11 -7 -17 0 -6 5 -5 12 2 6 6 9 14 7 17 -3 3
-9 2 -12 -2z"/>
<path d="M6125 9360 c-14 -6 -1 -9 43 -9 35 -1 110 -13 167 -28 l103 -27 69
17 c37 9 99 21 137 27 37 5 71 11 74 14 13 14 -109 4 -190 -15 l-90 -21 -102
26 c-103 26 -174 32 -211 16z"/>
<path d="M7050 9361 c0 -6 5 -13 10 -16 6 -3 10 1 10 9 0 9 -4 16 -10 16 -5 0
-10 -4 -10 -9z"/>
<path d="M5765 9350 c-3 -5 -1 -10 4 -10 6 0 11 5 11 10 0 6 -2 10 -4 10 -3 0
-8 -4 -11 -10z"/>
<path d="M5737 9293 c-4 -3 -7 -11 -7 -17 0 -6 5 -5 12 2 6 6 9 14 7 17 -3 3
-9 2 -12 -2z"/>
<path d="M5960 9281 c-47 -10 -77 -27 -91 -52 -14 -27 -4 -66 20 -74 19 -6 18
-7 -5 -48 -26 -46 -33 -131 -13 -170 53 -104 215 -154 360 -111 72 21 103 45
128 97 26 53 26 109 3 162 -16 35 -17 43 -4 68 13 26 13 32 -5 55 -10 15 -41
38 -67 51 -42 21 -65 25 -170 27 -66 2 -137 0 -156 -5z m239 -145 c126 -15
133 -19 152 -89 21 -78 -15 -153 -90 -186 -72 -31 -145 -36 -221 -17 -77 20
-107 40 -137 92 -37 63 -28 132 25 187 23 24 33 27 91 27 36 -1 117 -7 180
-14z"/>
<path d="M6146 9035 c-22 -22 -20 -32 5 -40 32 -11 51 23 25 44 -11 9 -18 8
-30 -4z"/>
<path d="M6600 9267 c-66 -16 -96 -31 -110 -57 -13 -25 -13 -63 1 -77 8 -8 6
-19 -5 -41 -24 -47 -21 -138 7 -187 32 -58 81 -79 191 -83 98 -4 148 6 191 40
57 45 82 155 50 217 -14 28 -13 29 11 35 13 4 30 18 36 32 15 33 -12 71 -73
101 -56 29 -216 39 -299 20z m249 -143 c62 -13 88 -118 49 -194 -36 -69 -72
-85 -193 -85 -160 0 -208 37 -209 162 -1 84 23 111 103 116 108 7 219 7 250 1z"/>
<path d="M6706 9004 c-7 -19 10 -44 30 -44 8 0 14 7 14 15 0 8 5 15 11 15 8 0
8 5 -1 15 -16 20 -46 19 -54 -1z"/>
<path d="M5747 9253 c-4 -3 -7 -11 -7 -17 0 -6 5 -5 12 2 6 6 9 14 7 17 -3 3
-9 2 -12 -2z"/>
<path d="M6446 8831 c38 -99 59 -216 49 -267 -6 -34 -6 -34 -48 -28 -23 4 -64
15 -91 25 -47 17 -48 17 -31 -1 22 -24 98 -50 146 -50 44 0 49 11 49 111 0 94
-51 253 -93 287 -9 8 -1 -23 19 -77z"/>
<path d="M5956 8751 c60 -55 196 -61 256 -11 28 23 13 25 -35 5 -57 -24 -140
-19 -201 10 l-51 25 31 -29z"/>
<path d="M6585 8750 c26 -28 118 -54 170 -46 50 6 112 34 119 52 3 8 -12 5
-42 -9 -64 -28 -151 -28 -216 1 -48 22 -49 22 -31 2z"/>
<path d="M8540 8060 c-18 -11 -20 -84 -3 -101 19 -19 43 7 43 45 0 41 -20 69
-40 56z"/>
<path d="M8729 8033 c-13 -35 2 -78 27 -78 14 0 20 8 22 29 8 68 -28 104 -49
49z"/>
<path d="M8595 7854 c24 -19 138 -16 157 5 11 11 8 12 -17 5 -38 -10 -92 -11
-130 -1 -29 7 -29 7 -10 -9z"/>
<path d="M8740 6986 c-58 -16 -79 -28 -109 -60 -33 -35 -22 -41 20 -11 18 14
64 35 101 46 106 31 95 54 -12 25z"/>
<path d="M7640 3932 c0 -10 22 -32 32 -32 15 0 8 28 -8 34 -21 8 -24 8 -24 -2z"/>
<path d="M4446 3597 c-39 -22 -58 -47 -37 -47 17 0 91 49 91 60 0 15 -11 12
-54 -13z"/>
</g>
</svg>
